# xmcd
#
# Track frame offsets:
# 150
# 28424
# 40207
# 54394
# 67337
# 80750
# 94667
# 107536
# 120626
# 135099
#
# Disc length: 1946 seconds
#
# Revision: 0
# Processed by: cddbd v1.5.2PL0 Copyright (c) Steve Scherf et al.
# Submitted via: Axialis_AX_CDPlayer 2.6
#
DISCID=8507980a
DTITLE=B.B. King - The Great B.B. King
DYEAR=1900
DGENRE=
TTITLE0=Sweet Sixteen
TTITLE1=(I'm Gonna) Quit You Baby
TTITLE2=I Was Blind
TTITLE3=What Can I Do
TTITLE4=Someday Baby
TTITLE5=Sneakin' Around
TTITLE6=I Had A Woman
TTITLE7=Be Careful With A Fool
TTITLE8=Whole Lotta' Love
TTITLE9=Days Of Old
EXTD=www.bbking.com
EXTT0=
EXTT1=
EXTT2=
EXTT3=
EXTT4=
EXTT5=
EXTT6=
EXTT7=
EXTT8=
EXTT9=
PLAYORDER=
